HIERARCHY
ROOT Hips
{
  OFFSET 0.0 0.0 0.0
  CHANNELS 6 Xposition Yposition Zposition Zrotation Xrotation Yrotation
  JOINT Spine
  {
    OFFSET 0.0 10.0 0.0
    CHANNELS 3 Zrotation Xrotation Yrotation
    JOINT Chest
    {
      OFFSET 0.0 10.0 0.0
      CHANNELS 3 Zrotation Xrotation Yrotation
      JOINT Neck
      {
        OFFSET 0.0 5.0 0.0
        CHANNELS 3 Zrotation Xrotation Yrotation
        JOINT Head
        {
          OFFSET 0.0 5.0 0.0
          CHANNELS 3 Zrotation Xrotation Yrotation
          End Site
          {
            OFFSET 0.0 3.0 0.0
          }
        }
      }
      JOINT LeftShoulder
      {
        OFFSET 5.0 3.0 0.0
        CHANNELS 3 Zrotation Xrotation Yrotation
        JOINT LeftArm
        {
          OFFSET 10.0 0.0 0.0
          CHANNELS 3 Zrotation Xrotation Yrotation
          JOINT LeftForeArm
          {
            OFFSET 10.0 0.0 0.0
            CHANNELS 3 Zrotation Xrotation Yrotation
            JOINT LeftHand
            {
              OFFSET 8.0 0.0 0.0
              CHANNELS 3 Zrotation Xrotation Yrotation
              End Site
              {
                OFFSET 3.0 0.0 0.0
              }
            }
          }
        }
      }
      JOINT RightShoulder
      {
        OFFSET -5.0 3.0 0.0
        CHANNELS 3 Zrotation Xrotation Yrotation
        JOINT RightArm
        {
          OFFSET -10.0 0.0 0.0
          CHANNELS 3 Zrotation Xrotation Yrotation
          JOINT RightForeArm
          {
            OFFSET -10.0 0.0 0.0
            CHANNELS 3 Zrotation Xrotation Yrotation
            JOINT RightHand
            {
              OFFSET -8.0 0.0 0.0
              CHANNELS 3 Zrotation Xrotation Yrotation
              End Site
              {
                OFFSET -3.0 0.0 0.0
              }
            }
          }
        }
      }
    }
  }
  JOINT LeftHip
  {
    OFFSET 5.0 -2.0 0.0
    CHANNELS 3 Zrotation Xrotation Yrotation
    JOINT LeftThigh
    {
      OFFSET 0.0 -20.0 0.0
      CHANNELS 3 Zrotation Xrotation Yrotation
      JOINT LeftShin
      {
        OFFSET 0.0 -20.0 0.0
        CHANNELS 3 Zrotation Xrotation Yrotation
        JOINT LeftFoot
        {
          OFFSET 0.0 -5.0 0.0
          CHANNELS 3 Zrotation Xrotation Yrotation
          End Site
          {
            OFFSET 0.0 -2.0 5.0
          }
        }
      }
    }
  }
  JOINT RightHip
  {
    OFFSET -5.0 -2.0 0.0
    CHANNELS 3 Zrotation Xrotation Yrotation
    JOINT RightThigh
    {
      OFFSET 0.0 -20.0 0.0
      CHANNELS 3 Zrotation Xrotation Yrotation
      JOINT RightShin
      {
        OFFSET 0.0 -20.0 0.0
        CHANNELS 3 Zrotation Xrotation Yrotation
        JOINT RightFoot
        {
          OFFSET 0.0 -5.0 0.0
          CHANNELS 3 Zrotation Xrotation Yrotation
          End Site
          {
            OFFSET 0.0 -2.0 5.0
          }
        }
      }
    }
  }
}
MOTION
Frames: 19
Frame Time: 0.033333
0.350944 40.000000 9.993840 0.175472 0.000000 0.000000 0.000000 0.000000 0.000000 0.000000 0.087736 0.000000 0.000000 0.000000 0.000000 0.000000 0.052642 0.000000 0.000000 0.000000 -10.000000 0.000000 0.000000 -0.420873 0.000000 0.000000 -0.420873 0.000000 0.000000 0.000000 0.000000 0.000000 10.000000 0.000000 0.000000 0.420873 0.000000 0.000000 0.000000 0.000000 0.000000 0.000000 0.000000 0.000000 0.000000 0.000000 0.000000 1.402911 0.000000 0.000000 0.000000 0.000000 0.000000 0.000000 0.000000 0.000000 0.000000 0.000000 0.000000 -1.402911 0.000000 0.000000 1.402911 0.000000 0.000000 0.000000
1.051103 40.000000 9.944606 0.525551 0.000000 0.000000 0.000000 0.000000 0.000000 0.000000 0.262776 0.000000 0.000000 0.000000 0.000000 0.000000 0.157665 0.000000 0.000000 0.000000 -10.000000 0.000000 0.000000 -1.254336 0.000000 0.000000 -1.254336 0.000000 0.000000 0.000000 0.000000 0.000000 10.000000 0.000000 0.000000 1.254336 0.000000 0.000000 0.000000 0.000000 0.000000 0.000000 0.000000 0.000000 0.000000 0.000000 0.000000 4.181121 0.000000 0.000000 0.000000 0.000000 0.000000 0.000000 0.000000 0.000000 0.000000 0.000000 0.000000 -4.181121 0.000000 0.000000 4.181121 0.000000 0.000000 0.000000
1.746083 40.000000 9.846380 0.873042 0.000000 0.000000 0.000000 0.000000 0.000000 0.000000 0.436521 0.000000 0.000000 0.000000 0.000000 0.000000 0.261912 0.000000 0.000000 0.000000 -10.000000 0.000000 0.000000 -2.063112 0.000000 0.000000 -2.063112 0.000000 0.000000 0.000000 0.000000 0.000000 10.000000 0.000000 0.000000 2.063112 0.000000 0.000000 0.000000 0.000000 0.000000 0.000000 0.000000 0.000000 0.000000 0.000000 0.000000 6.877040 0.000000 0.000000 0.000000 0.000000 0.000000 0.000000 0.000000 0.000000 0.000000 0.000000 0.000000 -6.877040 0.000000 0.000000 6.877040 0.000000 0.000000 0.000000
2.432462 40.000000 9.699646 1.216231 0.000000 0.000000 0.000000 0.000000 0.000000 0.000000 0.608115 0.000000 0.000000 0.000000 0.000000 0.000000 0.364869 0.000000 0.000000 0.000000 -10.000000 0.000000 0.000000 -2.831282 0.000000 0.000000 -2.831282 0.000000 0.000000 0.000000 0.000000 0.000000 10.000000 0.000000 0.000000 2.831282 0.000000 0.000000 0.000000 0.000000 0.000000 0.000000 0.000000 0.000000 0.000000 0.000000 0.000000 9.437607 0.000000 0.000000 0.000000 0.000000 0.000000 0.000000 0.000000 0.000000 0.000000 0.000000 0.000000 -9.437607 0.000000 0.000000 9.437607 0.000000 0.000000 0.000000
3.106857 40.000000 9.505127 1.553428 0.000000 0.000000 0.000000 0.000000 0.000000 0.000000 0.776714 0.000000 0.000000 0.000000 0.000000 0.000000 0.466029 0.000000 0.000000 0.000000 -10.000000 0.000000 0.000000 -3.543728 0.000000 0.000000 -3.543728 0.000000 0.000000 0.000000 0.000000 0.000000 10.000000 0.000000 0.000000 3.543728 0.000000 0.000000 0.000000 0.000000 0.000000 0.000000 0.000000 0.000000 0.000000 0.000000 0.000000 11.812428 0.000000 0.000000 0.000000 0.000000 0.000000 0.000000 0.000000 0.000000 0.000000 0.000000 0.000000 -11.812428 0.000000 0.000000 11.812428 0.000000 0.000000 0.000000
3.765946 40.000000 9.263782 1.882973 0.000000 0.000000 0.000000 0.000000 0.000000 0.000000 0.941487 0.000000 0.000000 0.000000 0.000000 0.000000 0.564892 0.000000 0.000000 0.000000 -10.000000 0.000000 0.000000 -4.186428 0.000000 0.000000 -4.186428 0.000000 0.000000 0.000000 0.000000 0.000000 10.000000 0.000000 0.000000 4.186428 0.000000 0.000000 0.000000 0.000000 0.000000 0.000000 0.000000 0.000000 0.000000 0.000000 0.000000 13.954762 0.000000 0.000000 0.000000 0.000000 0.000000 0.000000 0.000000 0.000000 0.000000 0.000000 0.000000 -13.954762 0.000000 0.000000 13.954762 0.000000 0.000000 0.000000
4.406483 40.000000 8.976798 2.203241 0.000000 0.000000 0.000000 0.000000 0.000000 0.000000 1.101621 0.000000 0.000000 0.000000 0.000000 0.000000 0.660972 0.000000 0.000000 0.000000 -10.000000 0.000000 0.000000 -4.746733 0.000000 0.000000 -4.746733 0.000000 0.000000 0.000000 0.000000 0.000000 10.000000 0.000000 0.000000 4.746733 0.000000 0.000000 0.000000 0.000000 0.000000 0.000000 0.000000 0.000000 0.000000 0.000000 0.000000 15.822443 0.000000 0.000000 0.000000 0.000000 0.000000 0.000000 0.000000 0.000000 0.000000 0.000000 0.000000 -15.822443 0.000000 0.000000 15.822443 0.000000 0.000000 0.000000
5.025311 40.000000 8.645591 2.512655 0.000000 0.000000 0.000000 0.000000 0.000000 0.000000 1.256328 0.000000 0.000000 0.000000 0.000000 0.000000 0.753797 0.000000 0.000000 0.000000 -10.000000 0.000000 0.000000 -5.213614 0.000000 0.000000 -5.213614 0.000000 0.000000 0.000000 0.000000 0.000000 10.000000 0.000000 0.000000 5.213614 0.000000 0.000000 0.000000 0.000000 0.000000 0.000000 0.000000 0.000000 0.000000 0.000000 0.000000 17.378714 0.000000 0.000000 0.000000 0.000000 0.000000 0.000000 0.000000 0.000000 0.000000 0.000000 0.000000 -17.378714 0.000000 0.000000 17.378714 0.000000 0.000000 0.000000
5.619382 40.000000 8.271792 2.809691 0.000000 0.000000 0.000000 0.000000 0.000000 0.000000 1.404846 0.000000 0.000000 0.000000 0.000000 0.000000 0.842907 0.000000 0.000000 0.000000 -10.000000 0.000000 0.000000 -5.577883 0.000000 0.000000 -5.577883 0.000000 0.000000 0.000000 0.000000 0.000000 10.000000 0.000000 0.000000 5.577883 0.000000 0.000000 0.000000 0.000000 0.000000 0.000000 0.000000 0.000000 0.000000 0.000000 0.000000 18.592944 0.000000 0.000000 0.000000 0.000000 0.000000 0.000000 0.000000 0.000000 0.000000 0.000000 0.000000 -18.592944 0.000000 0.000000 18.592944 0.000000 0.000000 0.000000
6.185770 40.000000 7.857242 3.092885 0.000000 0.000000 0.000000 0.000000 0.000000 0.000000 1.546442 0.000000 0.000000 0.000000 0.000000 0.000000 0.927865 0.000000 0.000000 0.000000 -10.000000 0.000000 0.000000 -5.832371 0.000000 0.000000 -5.832371 0.000000 0.000000 0.000000 0.000000 0.000000 10.000000 0.000000 0.000000 5.832371 0.000000 0.000000 0.000000 0.000000 0.000000 0.000000 0.000000 0.000000 0.000000 0.000000 0.000000 19.441236 0.000000 0.000000 0.000000 0.000000 0.000000 0.000000 0.000000 0.000000 0.000000 0.000000 0.000000 -19.441236 0.000000 0.000000 19.441236 0.000000 0.000000 0.000000
6.721683 40.000000 7.403984 3.360842 0.000000 0.000000 0.000000 0.000000 0.000000 0.000000 1.680421 0.000000 0.000000 0.000000 0.000000 0.000000 1.008252 0.000000 0.000000 0.000000 -10.000000 0.000000 0.000000 -5.972068 0.000000 0.000000 -5.972068 0.000000 0.000000 0.000000 0.000000 0.000000 10.000000 0.000000 0.000000 5.972068 0.000000 0.000000 0.000000 0.000000 0.000000 0.000000 0.000000 0.000000 0.000000 0.000000 0.000000 19.906893 0.000000 0.000000 0.000000 0.000000 0.000000 0.000000 0.000000 0.000000 0.000000 0.000000 0.000000 -19.906893 0.000000 0.000000 19.906893 0.000000 0.000000 0.000000
7.224482 40.000000 6.914250 3.612241 0.000000 0.000000 0.000000 0.000000 0.000000 0.000000 1.806121 0.000000 0.000000 0.000000 0.000000 0.000000 1.083672 0.000000 0.000000 0.000000 -10.000000 0.000000 0.000000 -5.994225 0.000000 0.000000 -5.994225 0.000000 0.000000 0.000000 0.000000 0.000000 10.000000 0.000000 0.000000 5.994225 0.000000 0.000000 0.000000 0.000000 0.000000 0.000000 0.000000 0.000000 0.000000 0.000000 0.000000 19.980751 0.000000 0.000000 0.000000 0.000000 0.000000 0.000000 0.000000 0.000000 0.000000 0.000000 0.000000 -19.980751 0.000000 0.000000 19.980751 0.000000 0.000000 0.000000
7.691691 40.000000 6.390453 3.845845 0.000000 0.000000 0.000000 0.000000 0.000000 0.000000 1.922923 0.000000 0.000000 0.000000 0.000000 0.000000 1.153754 0.000000 0.000000 0.000000 -10.000000 0.000000 0.000000 -5.898407 0.000000 0.000000 -5.898407 0.000000 0.000000 0.000000 0.000000 0.000000 10.000000 0.000000 0.000000 5.898407 0.000000 0.000000 0.000000 0.000000 0.000000 0.000000 0.000000 0.000000 0.000000 0.000000 0.000000 19.661356 0.000000 0.000000 0.000000 0.000000 0.000000 0.000000 0.000000 0.000000 0.000000 0.000000 0.000000 -19.661356 0.000000 0.000000 19.661356 0.000000 0.000000 0.000000
8.121006 40.000000 5.835175 4.060503 0.000000 0.000000 0.000000 0.000000 0.000000 0.000000 2.030251 0.000000 0.000000 0.000000 0.000000 0.000000 1.218151 0.000000 0.000000 0.000000 -10.000000 0.000000 0.000000 -5.686498 0.000000 0.000000 -5.686498 0.000000 0.000000 0.000000 0.000000 0.000000 10.000000 0.000000 0.000000 5.686498 0.000000 0.000000 0.000000 0.000000 0.000000 0.000000 0.000000 0.000000 0.000000 0.000000 0.000000 18.954995 0.000000 0.000000 0.000000 0.000000 0.000000 0.000000 0.000000 0.000000 0.000000 0.000000 0.000000 -18.954995 0.000000 0.000000 18.954995 0.000000 0.000000 0.000000
8.510313 40.000000 5.251149 4.255157 0.000000 0.000000 0.000000 0.000000 0.000000 0.000000 2.127578 0.000000 0.000000 0.000000 0.000000 0.000000 1.276547 0.000000 0.000000 0.000000 -10.000000 0.000000 0.000000 -5.362671 0.000000 0.000000 -5.362671 0.000000 0.000000 0.000000 0.000000 0.000000 10.000000 0.000000 0.000000 5.362671 0.000000 0.000000 0.000000 0.000000 0.000000 0.000000 0.000000 0.000000 0.000000 0.000000 0.000000 17.875569 0.000000 0.000000 0.000000 0.000000 0.000000 0.000000 0.000000 0.000000 0.000000 0.000000 0.000000 -17.875569 0.000000 0.000000 17.875569 0.000000 0.000000 0.000000
8.857695 40.000000 4.641254 4.428848 0.000000 0.000000 0.000000 0.000000 0.000000 0.000000 2.214424 0.000000 0.000000 0.000000 0.000000 0.000000 1.328654 0.000000 0.000000 0.000000 -10.000000 0.000000 0.000000 -4.933297 0.000000 0.000000 -4.933297 0.000000 0.000000 0.000000 0.000000 0.000000 10.000000 0.000000 0.000000 4.933297 0.000000 0.000000 0.000000 0.000000 0.000000 0.000000 0.000000 0.000000 0.000000 0.000000 0.000000 16.444324 0.000000 0.000000 0.000000 0.000000 0.000000 0.000000 0.000000 0.000000 0.000000 0.000000 0.000000 -16.444324 0.000000 0.000000 16.444324 0.000000 0.000000 0.000000
9.161440 40.000000 4.008493 4.580720 0.000000 0.000000 0.000000 0.000000 0.000000 0.000000 2.290360 0.000000 0.000000 0.000000 0.000000 0.000000 1.374216 0.000000 0.000000 0.000000 -10.000000 0.000000 0.000000 -4.406828 0.000000 0.000000 -4.406828 0.000000 0.000000 0.000000 0.000000 0.000000 10.000000 0.000000 0.000000 4.406828 0.000000 0.000000 0.000000 0.000000 0.000000 0.000000 0.000000 0.000000 0.000000 0.000000 0.000000 14.689428 0.000000 0.000000 0.000000 0.000000 0.000000 0.000000 0.000000 0.000000 0.000000 0.000000 0.000000 -14.689428 0.000000 0.000000 14.689428 0.000000 0.000000 0.000000
9.420051 40.000000 3.355985 4.710026 0.000000 0.000000 0.000000 0.000000 0.000000 0.000000 2.355013 0.000000 0.000000 0.000000 0.000000 0.000000 1.413008 0.000000 0.000000 0.000000 -10.000000 0.000000 0.000000 -3.793626 0.000000 0.000000 -3.793626 0.000000 0.000000 0.000000 0.000000 0.000000 10.000000 0.000000 0.000000 3.793626 0.000000 0.000000 0.000000 0.000000 0.000000 0.000000 0.000000 0.000000 0.000000 0.000000 0.000000 12.645421 0.000000 0.000000 0.000000 0.000000 0.000000 0.000000 0.000000 0.000000 0.000000 0.000000 0.000000 -12.645421 0.000000 0.000000 12.645421 0.000000 0.000000 0.000000
9.632255 40.000000 2.686944 4.816127 0.000000 0.000000 0.000000 0.000000 0.000000 0.000000 2.408064 0.000000 0.000000 0.000000 0.000000 0.000000 1.444838 0.000000 0.000000 0.000000 -10.000000 0.000000 0.000000 -3.105760 0.000000 0.000000 -3.105760 0.000000 0.000000 0.000000 0.000000 0.000000 10.000000 0.000000 0.000000 3.105760 0.000000 0.000000 0.000000 0.000000 0.000000 0.000000 0.000000 0.000000 0.000000 0.000000 0.000000 10.352532 0.000000 0.000000 0.000000 0.000000 0.000000 0.000000 0.000000 0.000000 0.000000 0.000000 0.000000 -10.352532 0.000000 0.000000 10.352532 0.000000 0.000000 0.000000
